<?xml version="1.0" encoding="utf-8"?>
<!-- Generator: Adobe Illustrator 25.4.1, SVG Export Plug-In . SVG Version: 6.00 Build 0)  -->
<svg version="1.1" id="Layer_1" xmlns="http://www.w3.org/2000/svg" xmlns:xlink="http://www.w3.org/1999/xlink" x="0px" y="0px"
	 viewBox="0 0 1296.38 379.1" style="enable-background:new 0 0 1296.38 379.1;" xml:space="preserve">
<path d="M315.86,57.37c-22.87,0-44.41,5.79-63.23,15.99c-18.82-10.2-40.36-15.99-63.23-15.99c-73.45,0-133.21,59.76-133.21,133.21
	c0,73.46,59.76,133.21,133.21,133.21c22.87,0,44.41-5.79,63.23-15.99c18.82,10.2,40.36,15.99,63.23,15.99
	c73.45,0,133.21-59.76,133.21-133.21C449.07,117.13,389.31,57.37,315.86,57.37z M189.39,310.79c-66.29,0-120.21-53.93-120.21-120.21
	c0-66.29,53.93-120.21,120.21-120.21c17.93,0,34.95,3.95,50.25,11.02c-34.43,24.11-57,64.06-57,109.19
	c0,45.13,22.56,85.09,57,109.19C224.34,306.84,207.32,310.79,189.39,310.79z M252.62,88.38c34.17,21.22,56.98,59.09,56.98,102.19
	c0,43.1-22.81,80.97-56.98,102.2c-34.17-21.22-56.98-59.09-56.98-102.2C195.64,147.48,218.45,109.61,252.62,88.38z M315.86,310.79
	c-17.93,0-34.95-3.95-50.25-11.02c34.43-24.11,57-64.06,57-109.19c0-45.13-22.56-85.08-57-109.19c15.3-7.07,32.32-11.02,50.25-11.02
	c66.29,0,120.21,53.93,120.21,120.21C436.07,256.87,382.14,310.79,315.86,310.79z"/>
<g>
	<g>
		<path d="M538.56,124.66l-2.48,1.44l-0.96-8.56c-2-1.52-5.76-2.32-12.96-2.32h-5.04c-1.68,0-2.08,2.56-2.08,8.48v40.32
			c0,1.68,0.8,2.4,2.48,2.4h6.32l-0.96,2.4h-20.96l0.88-2.4h5.12c1.44,0,1.84-1.44,1.84-4.72v-36.96c0-9.04-0.8-9.52-3.44-9.52
			h-3.68c-7.2,0-10.96,0.8-12.96,2.32l-0.96,7.12l-2.48,1.44l0.72-14.16h2.56l0.4,0.88h44.8l0.56-0.88h2.56L538.56,124.66z"/>
		<path d="M556.8,166.58h6l-0.8,2.24h-18.8l0.8-2.24h4.88c1.28,0,1.68-1.44,1.68-4.72v-44.24c0-3.36-0.72-4.88-4.32-4.88
			c-1.52,0-3.68,0.4-5.44,0.8v-1.84c7.68-1.76,11.36-2.96,14.4-5.36l0.96,0.88c-0.24,0.56-0.8,2.08-0.8,5.76v23.6h0.96
			c5.28-5.04,12.24-7.92,17.6-7.92c8.24,0,12.24,3.84,12.24,13.28v23.04c0,0.88,0.24,1.6,1.44,1.6h6l-0.8,2.24H574l0.8-2.24h4.88
			c1.28,0,1.68-1.44,1.68-4.72v-18.88c0-5.76-2.08-10.64-9.68-10.64c-4.88,0-11.12,1.92-16.32,7.28v25.36
			C555.35,165.86,555.6,166.58,556.8,166.58z"/>
		<path d="M594.07,150.34c0-12.08,10.64-21.68,21.84-21.68c8.8,0,16.24,4.4,18.08,11.28l-1.36,1.28h-32.08
			c-0.64,2.08-1.04,4.48-1.04,7.12c0,11.04,6.08,18,16.88,18c8.64,0,14.8-4.24,17.52-7.04l1.12,1.04
			c-5.52,6.72-12.48,9.44-19.12,9.44C600.79,169.78,594.07,160.74,594.07,150.34z M628.56,139.22c-1.92-4.24-6-8.16-13.44-8.16
			c-6.16,0-11.2,2.8-13.76,8.16H628.56z"/>
		<path d="M661.59,141.78c0-18.24,14.48-29.92,29.44-29.92c16.4,0,28.32,12.72,28.32,27.52c0,15.6-11.28,30.4-29.44,30.4
			C673.43,169.78,661.59,157.14,661.59,141.78z M690.39,167.22c16.24,0,23.04-13.12,23.04-26.32c0-12.8-9.12-26.48-22.88-26.48
			c-16.72,0-23.04,13.76-23.04,26.32C667.51,154.98,676.47,167.22,690.39,167.22z"/>
		<path d="M737.11,166.58h8.32l-0.8,2.24h-21.12l0.8-2.24h4.88c1.28,0,1.68-1.44,1.68-4.72v-29.84h-7.92l0.8-2.4h7.12v-2.16
			c0-10,7.36-17.92,16.4-17.92c4,0,8.56,0.56,8.56,2c0,1.2-1.6,3.2-3.12,3.2c-1.52,0-5.36-1.6-10.08-1.6c-4.4,0-6.96,2.32-6.96,10.4
			v6.08h10.48l-0.8,2.4h-9.68v32.96C735.67,165.86,735.91,166.58,737.11,166.58z"/>
		<path d="M752.95,166.58h4.88c1.28,0,1.68-1.44,1.68-4.72v-29.84h-7.92l0.8-2.4h7.12v-0.48c0-10.96,7.84-19.52,19.36-19.52
			c6.32,0,13.12,2.88,13.12,6.88c0,2-2.16,2.88-3.52,2.88c-3.76,0-2.08-8-12.16-8c-9.12,0-12,6.64-12,16.56v1.68h10.48l-0.8,2.4
			h-9.68v32.96c0,0.88,0.24,1.6,1.44,1.6h8.32l-0.8,2.24h-21.12L752.95,166.58z M779.03,132.02c5.84-1.52,9.2-2.72,13.04-4.72h0.8
			c-0.08,1.2-0.08,3.36-0.08,6v31.68c0,0.88,0.24,1.6,1.44,1.6h5.92l-0.8,2.24h-18.72l0.8-2.24h4.88c1.28,0,1.68-1.44,1.68-4.72
			v-24.08c0-3.36-0.56-4.88-3.52-4.88c-1.52,0-4.48,0.72-5.44,1.12V132.02z"/>
		<path d="M823.51,169.78c-13.84,0-21.28-8.48-21.28-19.44c0-12.08,10.08-21.68,23.04-21.68c6.8,0,13.76,2.88,13.76,6.96
			c0,1.52-1.84,2.64-2.88,2.64c-3.36,0-4.08-7.2-12.08-7.2c-9.04,0-16.4,6-16.4,17.28c0,11.04,6.08,18,16.88,18
			c7.12,0,11.92-3.28,14.96-6.08l1.04,1.04C835.91,167.14,829.43,169.78,823.51,169.78z"/>
		<path d="M845.83,150.34c0-12.08,10.64-21.68,21.84-21.68c8.8,0,16.24,4.4,18.08,11.28l-1.36,1.28h-32.08
			c-0.64,2.08-1.04,4.48-1.04,7.12c0,11.04,6.08,18,16.88,18c8.64,0,14.8-4.24,17.52-7.04l1.12,1.04
			c-5.52,6.72-12.48,9.44-19.12,9.44C852.55,169.78,845.83,160.74,845.83,150.34z M880.31,139.22c-1.92-4.24-6-8.16-13.44-8.16
			c-6.16,0-11.2,2.8-13.76,8.16H880.31z"/>
		<path d="M912.87,150.5c0-12.08,9.44-21.84,21.28-21.84c12,0,20.96,7.92,20.96,19.52c0,11.84-9.12,21.6-20.96,21.6
			C922.31,169.78,912.87,163.3,912.87,150.5z M934.15,167.54c8.48,0,15.52-6.24,15.52-18.08c0-11.6-7.44-18.56-15.52-18.56
			c-7.76,0-15.84,5.04-15.84,18.56C918.31,160.9,925.35,167.54,934.15,167.54z"/>
		<path d="M970.79,166.58h8.32l-0.8,2.24h-21.12l0.8-2.24h4.88c1.28,0,1.68-1.44,1.68-4.72v-29.84h-7.92l0.8-2.4h7.12v-2.16
			c0-10,7.36-17.92,16.4-17.92c4,0,8.56,0.56,8.56,2c0,1.2-1.6,3.2-3.12,3.2c-1.52,0-5.36-1.6-10.08-1.6c-4.4,0-6.96,2.32-6.96,10.4
			v6.08h10.48l-0.8,2.4h-9.68v32.96C969.35,165.86,969.59,166.58,970.79,166.58z"/>
		<path d="M489.58,256.02v-63h39.51v7.74h-29.97v19.89h24.84v7.65h-24.84v27.72H489.58z"/>
		<path d="M546.46,257.1c-5.4,0-9.65-1.68-12.74-5.04c-3.09-3.36-4.63-8.37-4.63-15.03v-25.65h9.54v24.66
			c0,8.64,3.54,12.96,10.62,12.96c3.54,0,6.45-1.26,8.73-3.78c2.28-2.52,3.42-6.12,3.42-10.8v-23.04h9.54v44.64h-8.46l-0.72-7.83
			c-1.38,2.76-3.41,4.94-6.08,6.53C553.02,256.3,549.94,257.1,546.46,257.1z"/>
		<path d="M598.21,256.02c-4.38,0-7.86-1.06-10.44-3.2c-2.58-2.13-3.87-5.92-3.87-11.38v-22.05h-7.65v-8.01h7.65l1.17-11.34h8.37
			v11.34h12.6v8.01h-12.6v22.05c0,2.46,0.52,4.16,1.57,5.08c1.05,0.93,2.87,1.4,5.45,1.4h5.13v8.1H598.21z"/>
		<path d="M628.72,257.1c-5.4,0-9.65-1.68-12.74-5.04c-3.09-3.36-4.63-8.37-4.63-15.03v-25.65h9.54v24.66
			c0,8.64,3.54,12.96,10.62,12.96c3.54,0,6.45-1.26,8.73-3.78c2.28-2.52,3.42-6.12,3.42-10.8v-23.04h9.54v44.64h-8.46l-0.72-7.83
			c-1.38,2.76-3.41,4.94-6.08,6.53C635.28,256.3,632.2,257.1,628.72,257.1z"/>
		<path d="M659.95,256.02v-44.64h8.55l0.81,8.46c1.56-2.94,3.74-5.27,6.53-6.98s6.17-2.56,10.12-2.56v9.99h-2.61
			c-2.64,0-5,0.44-7.06,1.31c-2.07,0.87-3.72,2.34-4.95,4.41c-1.23,2.07-1.84,4.94-1.84,8.59v21.42H659.95z"/>
		<path d="M708.73,257.1c-4.38,0-8.27-0.98-11.66-2.92c-3.39-1.95-6.04-4.67-7.96-8.15c-1.92-3.48-2.88-7.53-2.88-12.15
			c0-4.68,0.95-8.79,2.83-12.33c1.89-3.54,4.53-6.3,7.92-8.28c3.39-1.98,7.33-2.97,11.83-2.97c4.38,0,8.19,0.98,11.43,2.92
			c3.24,1.95,5.76,4.54,7.56,7.79s2.7,6.81,2.7,10.71c0,0.6-0.02,1.25-0.05,1.93c-0.03,0.69-0.08,1.46-0.13,2.29h-34.74
			c0.3,4.32,1.72,7.61,4.28,9.86c2.55,2.25,5.5,3.38,8.87,3.38c2.7,0,4.96-0.61,6.79-1.84c1.83-1.23,3.2-2.89,4.09-5h9.54
			c-1.2,4.2-3.59,7.71-7.16,10.53C718.44,255.69,714.01,257.1,708.73,257.1z M708.73,218.13c-3.18,0-6,0.94-8.46,2.83
			c-2.46,1.89-3.96,4.72-4.5,8.5h25.2c-0.18-3.48-1.41-6.24-3.69-8.28C715,219.15,712.15,218.13,708.73,218.13z"/>
		<path d="M763.45,256.02v-63h9.54v63H763.45z"/>
		<path d="M780.01,256.02v-44.64h8.46l0.72,7.83c1.38-2.76,3.4-4.93,6.08-6.53c2.67-1.59,5.74-2.38,9.22-2.38
			c5.4,0,9.64,1.68,12.74,5.04c3.09,3.36,4.63,8.37,4.63,15.03v25.65h-9.45v-24.66c0-8.64-3.54-12.96-10.62-12.96
			c-3.54,0-6.47,1.26-8.77,3.78c-2.31,2.52-3.46,6.12-3.46,10.8v23.04H780.01z"/>
		<path d="M845.53,256.02c-4.38,0-7.86-1.06-10.44-3.2c-2.58-2.13-3.87-5.92-3.87-11.38v-22.05h-7.65v-8.01h7.65l1.17-11.34h8.37
			v11.34h12.6v8.01h-12.6v22.05c0,2.46,0.52,4.16,1.57,5.08c1.05,0.93,2.87,1.4,5.45,1.4h5.13v8.1H845.53z"/>
		<path d="M878.65,257.1c-4.38,0-8.27-0.98-11.66-2.92c-3.39-1.95-6.04-4.67-7.96-8.15c-1.92-3.48-2.88-7.53-2.88-12.15
			c0-4.68,0.95-8.79,2.83-12.33c1.89-3.54,4.53-6.3,7.92-8.28c3.39-1.98,7.33-2.97,11.83-2.97c4.38,0,8.19,0.98,11.43,2.92
			c3.24,1.95,5.76,4.54,7.56,7.79s2.7,6.81,2.7,10.71c0,0.6-0.02,1.25-0.05,1.93c-0.03,0.69-0.08,1.46-0.13,2.29h-34.74
			c0.3,4.32,1.72,7.61,4.28,9.86c2.55,2.25,5.5,3.38,8.87,3.38c2.7,0,4.96-0.61,6.79-1.84c1.83-1.23,3.2-2.89,4.09-5h9.54
			c-1.2,4.2-3.59,7.71-7.16,10.53C888.35,255.69,883.93,257.1,878.65,257.1z M878.65,218.13c-3.18,0-6,0.94-8.46,2.83
			c-2.46,1.89-3.96,4.72-4.5,8.5h25.2c-0.18-3.48-1.41-6.24-3.69-8.28C884.92,219.15,882.07,218.13,878.65,218.13z"/>
		<path d="M904.93,256.02v-44.64h8.55l0.81,8.46c1.56-2.94,3.74-5.27,6.53-6.98s6.17-2.56,10.12-2.56v9.99h-2.61
			c-2.64,0-5,0.44-7.06,1.31c-2.07,0.87-3.72,2.34-4.95,4.41c-1.23,2.07-1.84,4.94-1.84,8.59v21.42H904.93z"/>
		<path d="M950.65,257.1c-3.78,0-6.9-0.63-9.36-1.89c-2.46-1.26-4.29-2.93-5.49-5c-1.2-2.07-1.8-4.33-1.8-6.79
			c0-4.32,1.68-7.74,5.04-10.26c3.36-2.52,8.16-3.78,14.4-3.78h11.7v-0.81c0-3.48-0.94-6.09-2.83-7.83
			c-1.89-1.74-4.33-2.61-7.33-2.61c-2.64,0-4.94,0.65-6.88,1.93c-1.95,1.29-3.14,3.2-3.55,5.71h-9.54c0.3-3.24,1.39-6.01,3.29-8.33
			c1.89-2.31,4.29-4.08,7.2-5.31c2.91-1.23,6.1-1.84,9.58-1.84c6.24,0,11.07,1.63,14.49,4.9c3.42,3.27,5.13,7.73,5.13,13.37v27.45
			h-8.28l-0.81-7.65c-1.26,2.46-3.09,4.53-5.49,6.21C957.7,256.26,954.55,257.1,950.65,257.1z M952.54,249.36
			c2.58,0,4.75-0.61,6.53-1.84c1.77-1.23,3.15-2.86,4.14-4.91c0.99-2.04,1.6-4.29,1.84-6.75h-10.62c-3.78,0-6.47,0.66-8.05,1.98
			c-1.59,1.32-2.38,2.97-2.38,4.95c0,2.04,0.76,3.65,2.29,4.82S949.9,249.36,952.54,249.36z"/>
		<path d="M1001.59,257.1c-4.38,0-8.29-0.99-11.75-2.97c-3.45-1.98-6.15-4.73-8.1-8.24c-1.95-3.51-2.92-7.57-2.92-12.2
			c0-4.62,0.97-8.68,2.92-12.19c1.95-3.51,4.65-6.25,8.1-8.24s7.37-2.97,11.75-2.97c5.52,0,10.16,1.44,13.91,4.32
			c3.75,2.88,6.17,6.78,7.25,11.7h-9.99c-0.6-2.46-1.92-4.38-3.96-5.76c-2.04-1.38-4.44-2.07-7.2-2.07c-2.34,0-4.5,0.58-6.48,1.75
			c-1.98,1.17-3.57,2.88-4.77,5.13s-1.8,5.03-1.8,8.32c0,3.3,0.6,6.08,1.8,8.33s2.79,3.98,4.77,5.17c1.98,1.2,4.14,1.8,6.48,1.8
			c2.76,0,5.16-0.69,7.2-2.07c2.04-1.38,3.36-3.33,3.96-5.85h9.99c-1.02,4.8-3.42,8.67-7.2,11.61
			C1011.76,255.63,1007.11,257.1,1001.59,257.1z"/>
		<path d="M1046.41,256.02c-4.38,0-7.86-1.06-10.44-3.2c-2.58-2.13-3.87-5.92-3.87-11.38v-22.05h-7.65v-8.01h7.65l1.17-11.34h8.37
			v11.34h12.6v8.01h-12.6v22.05c0,2.46,0.52,4.16,1.57,5.08c1.05,0.93,2.87,1.4,5.45,1.4h5.13v8.1H1046.41z"/>
		<path d="M1064.05,202.92c-1.8,0-3.29-0.55-4.46-1.67s-1.75-2.5-1.75-4.19c0-1.68,0.58-3.07,1.75-4.18
			c1.17-1.11,2.66-1.67,4.46-1.67c1.8,0,3.29,0.56,4.46,1.67c1.17,1.11,1.75,2.51,1.75,4.18c0,1.68-0.58,3.08-1.75,4.19
			S1065.85,202.92,1064.05,202.92z M1059.28,256.02v-44.64h9.54v44.64H1059.28z"/>
		<path d="M1096.9,257.1c-4.26,0-8.09-0.98-11.48-2.92s-6.07-4.68-8.05-8.19c-1.98-3.51-2.97-7.6-2.97-12.29
			c0-4.68,1-8.77,3.01-12.29c2.01-3.51,4.73-6.24,8.15-8.19c3.42-1.95,7.23-2.92,11.43-2.92c4.26,0,8.08,0.98,11.47,2.92
			c3.39,1.95,6.09,4.68,8.1,8.19c2.01,3.51,3.01,7.61,3.01,12.29c0,4.68-1,8.78-3.01,12.29c-2.01,3.51-4.73,6.24-8.15,8.19
			S1101.16,257.1,1096.9,257.1z M1096.9,248.91c2.28,0,4.39-0.57,6.34-1.71c1.95-1.14,3.52-2.83,4.73-5.08
			c1.2-2.25,1.8-5.05,1.8-8.42c0-3.36-0.58-6.17-1.75-8.42s-2.73-3.94-4.68-5.08c-1.95-1.14-4.07-1.71-6.34-1.71
			c-2.28,0-4.4,0.57-6.34,1.71c-1.95,1.14-3.53,2.83-4.73,5.08s-1.8,5.06-1.8,8.42c0,3.36,0.6,6.17,1.8,8.42s2.76,3.95,4.68,5.08
			C1092.52,248.34,1094.61,248.91,1096.9,248.91z"/>
		<path d="M1124.53,256.02v-44.64h8.46l0.72,7.83c1.38-2.76,3.4-4.93,6.08-6.53c2.67-1.59,5.74-2.38,9.22-2.38
			c5.4,0,9.64,1.68,12.74,5.04c3.09,3.36,4.63,8.37,4.63,15.03v25.65h-9.45v-24.66c0-8.64-3.54-12.96-10.62-12.96
			c-3.54,0-6.47,1.26-8.77,3.78c-2.31,2.52-3.46,6.12-3.46,10.8v23.04H1124.53z"/>
		<path d="M1190.05,257.1c-5.64,0-10.29-1.38-13.95-4.14c-3.66-2.76-5.76-6.42-6.3-10.98h9.63c0.48,2.04,1.62,3.8,3.42,5.26
			c1.8,1.47,4.17,2.21,7.11,2.21c2.88,0,4.98-0.6,6.3-1.8c1.32-1.2,1.98-2.58,1.98-4.14c0-2.28-0.92-3.83-2.75-4.63
			c-1.83-0.81-4.37-1.54-7.6-2.21c-2.52-0.54-5.03-1.26-7.52-2.16c-2.49-0.9-4.56-2.17-6.21-3.83c-1.65-1.65-2.47-3.88-2.47-6.71
			c0-3.9,1.5-7.16,4.5-9.76c3-2.61,7.2-3.92,12.6-3.92c4.98,0,9.01,1.2,12.11,3.6c3.09,2.4,4.9,5.79,5.44,10.17h-9.18
			c-0.3-1.92-1.19-3.42-2.66-4.5c-1.47-1.08-3.44-1.62-5.89-1.62c-2.4,0-4.26,0.5-5.58,1.49c-1.32,0.99-1.98,2.27-1.98,3.83
			c0,1.56,0.91,2.79,2.75,3.69c1.83,0.9,4.24,1.71,7.25,2.43c3,0.66,5.77,1.43,8.33,2.29c2.55,0.87,4.6,2.15,6.17,3.83
			c1.56,1.68,2.34,4.14,2.34,7.38c0.06,4.08-1.52,7.47-4.72,10.17C1199.93,255.75,1195.56,257.1,1190.05,257.1z"/>
	</g>
</g>
</svg>
